# https://github.com/mikedh/trimesh

o lower_casing
v 0.00000000 0.00000000 0.00000000
v 0.02000000 0.00000000 0.00000000
v 0.02000000 0.02000000 0.00000000
v 0.00000000 0.02000000 0.00000000
v 0.00000000 0.00000000 0.01000000
v 0.02000000 0.00000000 0.01000000
v 0.02000000 0.02000000 0.01000000
v 0.00000000 0.02000000 0.01000000
f 4 3 2
f 4 2 1
f 5 6 7
f 5 7 8
f 2 6 5
f 2 5 1
f 3 7 6
f 3 6 2
f 4 8 7
f 4 7 3
f 1 5 8
f 1 8 4

o upper_cover
v 0.00000000 0.00000000 0.01000000
v 0.02000000 0.00000000 0.01000000
v 0.02000000 0.02000000 0.01000000
v 0.00000000 0.02000000 0.01000000
v 0.00000000 0.00000000 0.02000000
v 0.02000000 0.00000000 0.02000000
v 0.02000000 0.02000000 0.02000000
v 0.00000000 0.02000000 0.02000000
f 12 11 10
f 12 10 9
f 13 14 15
f 13 15 16
f 10 14 13
f 10 13 9
f 11 15 14
f 11 14 10
f 12 16 15
f 12 15 11
f 9 13 16
f 9 16 12

